<svg id="bikcraft-qualidade" xmlns="http://www.w3.org/2000/svg" width="200" height="124" viewBox="0 0 200 124">
  <path id="Path_9" data-name="Path 9" d="M9.25,10.186c3.131-.124,10.767-.374,14.649-1.249-.126,1.625-.377,6.622-.377,16.116V29.3c3.505-2.874,6.386-4.373,9.891-4.373a10.317,10.317,0,0,1,9.014,4.623,19.568,19.568,0,0,1,2.5,10.12c0,11.617-5.509,18.239-16.652,18.239a21.039,21.039,0,0,1-8.764-2.125c-1.5.5-3.505,1.5-5.509,2.125l-.627-.376c.126-3.374.126-9.744.126-18.365V23.178c0-4-.126-6.746-.25-9.118-.126-1.625-.5-1.875-4.257-1.875ZM28.28,55.535c4.257,0,6.26-5.123,6.26-14.617a20.594,20.594,0,0,0-1.753-9.244,4.515,4.515,0,0,0-4.006-2.5,5.768,5.768,0,0,0-4.633,2.748c-.625.875-.875,1.625-.875,11.493,0,8.121.377,8.371.877,9.37A4.507,4.507,0,0,0,28.28,55.535Zm38.56,1.625c-2.63,0-5.258-.252-9.391-.252-4.381,0-6.51.252-8.637.252V55.035c3.505-.126,4.006-.75,4.132-2.125.124-1.5.25-3.872.25-7.745v-8c0-3.248,0-5.87-.126-7s-.627-1.5-3.882-1.373V26.676c4.383-.374,9.641-.5,13.9-1.373-.126,1.625-.25,4.623-.25,11.493v8.621c0,4,.126,5.747.25,7.5s.627,2,3.756,2.373ZM57.449,10.812c3.257,0,5.134,1.875,5.134,5.247,0,2.874-2.129,4.873-5.384,4.873a4.661,4.661,0,0,1-4.882-4.873,4.957,4.957,0,0,1,5.134-5.247Zm12.646-.626A92.509,92.509,0,0,0,83.742,8.937q-.254,7.743-.252,15.491V40.044C85.869,39.419,91,33.172,93,29.551c.377-.75.377-1.125-.625-1.125l-2.754-.25V26.053c4.633.126,9.391-.126,14.148-.376V27.8c-3.505.376-4.884.626-6.262,1.749A58.51,58.51,0,0,0,91.5,35.8c1.5,3.124,7.764,14.617,10.142,17.739a3.493,3.493,0,0,0,3.131,1.5l1.751.126-.124,2.123a93,93,0,0,0-13.9.75c-1.5-3.5-6.009-11.993-7.385-14.617-.751-1.373-1.128-1.873-1.629-1.749,0,5.123-.124,7.621.126,11.243.126,1.625.5,2.125,3.882,2.249v2.125c-2.38,0-4.884-.25-9.014-.25-4.884,0-7.011.25-8.89.25V55.159c3.255-.124,3.756-.748,3.882-2,.124-1.5.248-4.747.248-11.243V25.8c0-5.123,0-8.995-.124-12.243q0-1.124-1.5-1.125H69.968ZM39.924,88.015c-2.129,6.746-6.26,9.994-13.146,9.994-5.885,0-9.641-1.625-12.269-5.123-2-2.622-3-6.5-3-10.867,0-9.62,5.885-16.99,16.652-16.99,6.51,0,11.267,3,11.267,7.871,0,3.372-2.754,4.745-5.008,4.745a5.691,5.691,0,0,1-2.5-.624,1.95,1.95,0,0,1-.877-2.249,18.781,18.781,0,0,0,.377-2.624c0-3.122-1.128-4.621-3.505-4.621-3.882,0-5.885,5.623-5.885,13.368,0,3.122.377,6.62,1.5,8.743,1.252,2.874,3.255,4.5,6.26,4.5,3.756,0,6.135-2.123,7.888-7ZM47.059,78.9a69.646,69.646,0,0,0-.377-8.747,1.318,1.318,0,0,0-1.5-1.247H42.926V66.778c3.756-.126,8.89-.376,12.519-1.5l.377.25c.25,1.5.5,5.123.627,7.372H56.7c1.631-4.373,3.882-7.871,8.515-7.871a4.712,4.712,0,0,1,4.633,5c0,4.124-3.131,5.373-4.383,5.373a2.426,2.426,0,0,1-2.5-1.251c-.625-1.373-1-2.123-2.251-2.123-1.378,0-2.129,1.249-3,3.248a13.237,13.237,0,0,0-.627,4.5c0,7.122,0,11.119.126,12.868s.749,2.247,5.757,2.373l-.124,2.125c-3.505-.126-6.636-.252-10.266-.252-3.756,0-6.51.126-9.641.252l.375-2.125c3-.126,3.756-.5,3.756-1.749.126-1.749.25-5.123.25-8.995V78.895h-.25ZM89.5,73.15c0-3.75-1.254-5.749-3.758-5.749-2.878,0-4.255,1.625-4.255,4.623a13.916,13.916,0,0,0,.248,2.375,1.778,1.778,0,0,1-.749,1.873A6.853,6.853,0,0,1,77.482,77.4c-2.38,0-4.383-1.127-4.383-3.874,0-4,5.885-8.495,14.148-8.495,6.758,0,9.763,2.748,10.891,4.5a6.268,6.268,0,0,1,1,3.374V91.263c0,2.125.627,2.624,1.378,2.624,1,0,2.127-1.625,2.628-4.373l2.129,1c-1.128,5.373-4.383,7.621-8.89,7.621-3.882,0-6.009-1.625-6.636-4.873-3,3-6.133,4.873-9.389,4.873-5.258,0-8.764-3.5-8.764-9.246,0-3.5,1.5-5.5,4.132-6.62,4.255-1.875,10.64-3.748,13.769-6V73.148ZM81.612,87.016c0,2.748,1.128,5.747,3.882,5.747,2,0,2.878-1.249,3.505-2.5a9.262,9.262,0,0,0,.375-3V78.771c-1.378.875-3.505,1.875-5.134,2.874C82.738,82.645,81.612,83.892,81.612,87.016ZM106.4,66.154l4.006.124v-2c.126-5.247,1.378-9.121,4.132-11.869a12.386,12.386,0,0,1,9.138-3.748c5.134,0,7.888,2.5,7.888,5.747,0,2.375-2,4-4.759,4a2.363,2.363,0,0,1-2.5-2.5c0-2.622-.375-4.745-2.251-4.745-1.254,0-2,1.123-2.255,3.248-.248,2,.126,5.747.377,11.617h6.135l-.377,2.5-5.759.376c-.126,2.373-.126,6.5-.126,11.367,0,4.623,0,8.745.126,11.993.126,1.625.377,2.249,1.753,2.375a33.451,33.451,0,0,0,3.381.248l-.254,2.125c-2.378,0-6.133-.25-9.389-.25-3.381,0-7.387.25-9.641.25l.126-2.125c3.255-.124,3.756-.5,3.882-1.873.248-2.125.248-5.373.248-9.744V68.777l-4.255-.25.375-2.375Z" transform="translate(9.028 8.965)" fill="#213745"/>
  <path id="Path_10" data-name="Path 10" d="M89.91,43.143l-.252,2.378-7.636.5c0,2.63-.126,6.51-.126,11.768,0,5.509,0,9.264.252,11.518.124,1.629.749,2.38,2,2.38,2.628,0,4.255-2.88,4.882-5.509h1l.877,2.878c-1.5,3.632-5.26,6.135-10.769,6.135-3,0-5.633-1-6.885-2.5a6.9,6.9,0,0,1-1.252-4.507c0-5.134.25-16.652.25-22.16l-4.006-.377.25-2.378h3.756c.126-2.38.126-5.134.126-7.638A34.6,34.6,0,0,0,81.771,32l.751.126q-.328,5.565-.377,11.141h7.764v-.126Z" transform="translate(68.223 31.907)" fill="#213745"/>
  <path id="Path_11" data-name="Path 11" d="M190,10V114H10V10ZM200,0H0V124H200Z" fill="#213745"/>
</svg>
