<svg xmlns="http://www.w3.org/2000/svg" width="58" height="58" viewBox="0 0 58 58">
  <g id="facebook" transform="translate(-937 -2922)">
    <g id="Rectangle_7" data-name="Rectangle 7" transform="translate(937 2922)" fill="#213745" stroke="#f7efe2" stroke-width="3">
      <rect width="58" height="58" stroke="none"/>
      <rect x="1.5" y="1.5" width="55" height="55" fill="none"/>
    </g>
    <path id="facebook-2" data-name="facebook" d="M12.276,31.6a.4.4,0,0,0,.4.4h5.745a.4.4,0,0,0,.4-.4V15.874h4.165a.4.4,0,0,0,.4-.37l.4-4.736a.4.4,0,0,0-.4-.437H18.827V6.97a1.426,1.426,0,0,1,1.426-1.427h3.21a.4.4,0,0,0,.4-.4V.4a.4.4,0,0,0-.4-.4H18.04a5.763,5.763,0,0,0-5.763,5.763v4.568H9.4a.4.4,0,0,0-.4.4v4.738a.4.4,0,0,0,.4.4h2.873Z" transform="translate(950 2934.641)" fill="#fd4239" fill-rule="evenodd"/>
  </g>
</svg>
